# 3ds Max Wavefront OBJ Exporter v0.94b - (c)2007 guruware
# File Created: 01.09.2012 23:43:18

#
# object Model01
#

v  -31.8424 -1.2683 -0.8214
v  -31.8424 -0.0872 -3.1536
v  -31.8424 -0.0872 -0.8214
v  -31.8424 -1.2683 -3.1536
v  -31.8424 -2.0557 -3.1536
v  26.0317 -1.2683 -0.8214
v  26.0317 -1.2683 -3.1536
v  26.0317 -2.0557 -3.1536
v  -31.8424 -2.0557 -9.0892
v  -31.8424 -0.0872 -9.0892
v  -34.7951 -0.0872 -9.0892
v  -37.7479 -0.0872 -9.0892
v  -37.7479 -0.0872 -0.8214
v  -37.7479 -2.8431 -0.8214
v  -37.7479 -2.8431 -9.0892
v  -37.7479 -2.0557 -9.0892
v  -34.7951 -2.0557 -9.0892
v  -34.7951 -2.8431 -9.0892
v  -31.8424 -2.8431 -9.0892
v  -31.8424 -2.8431 -0.8214
v  -37.7479 -2.8431 -163.0262
v  -41.1154 -2.8431 -9.0892
v  -54.8949 -2.8431 -9.0892
v  -96.7112 -2.8431 -0.8214
v  -54.8949 -2.8431 -137.4356
v  -96.7112 -2.8431 -163.0262
v  -41.1154 -2.8431 -137.4356
v  -41.1154 12.2456 -137.4356
v  -41.1154 12.2456 -9.0892
v  -54.8949 12.2456 -9.0892
v  -54.8949 12.2456 -137.4356
v  -37.7479 -2.0557 -163.0262
v  -34.7951 -2.0557 -163.0262
v  -34.7951 -2.8431 -163.0262
v  28.7876 -2.8431 -163.0262
v  26.0317 -2.8431 -9.0892
v  28.7876 -2.8431 -9.0892
v  28.7876 -2.0557 -9.0892
v  28.7876 -2.0557 -163.0262
v  31.5435 -2.0557 -163.0262
v  31.5435 -2.8431 -163.0262
v  31.5435 -2.8431 -9.0892
v  31.5435 -2.0557 -9.0892
v  31.5435 -2.8431 -0.8214
v  26.0317 -2.8431 -0.8214
v  31.5435 -0.0872 -0.8214
v  31.5435 -0.0872 -9.0892
v  28.7876 -0.0872 -9.0892
v  26.0317 -2.0557 -9.0892
v  26.0317 -0.0872 -9.0892
v  26.0317 -0.0872 -3.1536
v  26.0317 -0.0872 -0.8214
v  34.8688 -2.8431 -137.4356
v  97.3833 -2.8431 -163.0262
v  48.6484 -2.8431 -137.4356
v  48.6484 -2.8431 -9.0892
v  97.3833 -2.8431 -0.8214
v  34.8688 -2.8431 -9.0892
v  34.8688 12.2456 -9.0892
v  34.8688 12.2456 -137.4356
v  48.6484 12.2456 -137.4356
v  48.6484 12.2456 -9.0892
# 62 vertices

vn 1.0000 0.0000 -0.0000
vn 0.0000 1.0000 -0.0000
vn -1.0000 0.0000 -0.0000
vn 0.0000 0.0000 -1.0000
vn 0.0000 0.0000 1.0000
vn 0.0000 -1.0000 -0.0000
# 6 vertex normals

vt 0.7434 0.5476 0.0000
vt 0.7500 0.5509 0.0000
vt 0.7434 0.5509 0.0000
vt 0.7500 0.5476 0.0000
vt 0.7500 0.5453 0.0000
vt 0.4546 0.0756 0.0000
vt 0.2912 0.0822 0.0000
vt 0.2912 0.0756 0.0000
vt 0.4546 0.0822 0.0000
vt 0.9428 0.5133 0.0000
vt 0.9428 0.5110 0.0000
vt 0.9494 0.5133 0.0000
vt 0.4546 0.0550 0.0000
vt 0.2912 0.0572 0.0000
vt 0.2912 0.0550 0.0000
vt 0.4546 0.0572 0.0000
vt 0.7668 0.5453 0.0000
vt 0.7668 0.5509 0.0000
vt 0.4312 0.0283 0.0000
vt 0.4546 0.0367 0.0000
vt 0.4312 0.0367 0.0000
vt 0.4312 0.0200 0.0000
vt 0.4546 0.0200 0.0000
vt 0.7723 0.5509 0.0000
vt 0.7956 0.5431 0.0000
vt 0.7956 0.5509 0.0000
vt 0.7723 0.5431 0.0000
vt 0.9205 0.5166 0.0000
vt 0.9128 0.5166 0.0000
vt 0.9183 0.5166 0.0000
vt 0.2728 0.1584 0.0000
vt 0.2645 0.1528 0.0000
vt 0.2728 0.1528 0.0000
vt 0.2645 0.1584 0.0000
vt 0.2562 0.1528 0.0000
vt 0.2645 0.1506 0.0000
vt 0.2562 0.1506 0.0000
vt 0.7668 0.5431 0.0000
vt 0.7434 0.5431 0.0000
vt 0.9800 0.4760 0.0000
vt 0.9633 0.4716 0.0000
vt 0.9800 0.4716 0.0000
vt 0.9633 0.4794 0.0000
vt 0.9800 0.4794 0.0000
vt 0.9567 0.4999 0.0000
vt 0.9800 0.5083 0.0000
vt 0.9567 0.5166 0.0000
vt 0.9800 0.4999 0.0000
vt 0.5221 0.5298 0.0000
vt 0.9800 0.5298 0.0000
vt 0.5454 0.5298 0.0000
vt 0.4546 0.6285 0.0000
vt 0.4779 0.6380 0.0000
vt 0.0200 0.6380 0.0000
vt 0.4546 0.5896 0.0000
vt 0.4779 0.4716 0.0000
vt 0.0922 0.5896 0.0000
vt 0.0200 0.4716 0.0000
vt 0.0922 0.6285 0.0000
vt 0.6026 0.3823 0.0000
vt 0.5600 0.0200 0.0000
vt 0.6026 0.0200 0.0000
vt 0.5600 0.3823 0.0000
vt 0.9101 0.2474 0.0000
vt 0.8712 0.2048 0.0000
vt 0.9101 0.2048 0.0000
vt 0.8712 0.2474 0.0000
vt 0.5414 0.3823 0.0000
vt 0.4988 0.0200 0.0000
vt 0.5414 0.0200 0.0000
vt 0.4988 0.3823 0.0000
vt 0.8712 0.1800 0.0000
vt 0.9101 0.1374 0.0000
vt 0.9101 0.1800 0.0000
vt 0.8712 0.1374 0.0000
vt 0.8464 0.3823 0.0000
vt 0.8075 0.0200 0.0000
vt 0.8464 0.0200 0.0000
vt 0.8075 0.3823 0.0000
vt 0.5454 0.5320 0.0000
vt 0.9800 0.5320 0.0000
vt 0.9260 0.5129 0.0000
vt 0.9344 0.5152 0.0000
vt 0.9260 0.5152 0.0000
vt 0.9344 0.5129 0.0000
vt 0.4546 0.1211 0.0000
vt 0.0200 0.1233 0.0000
vt 0.0200 0.1211 0.0000
vt 0.4546 0.1233 0.0000
vt 0.5400 0.5221 0.0000
vt 0.5316 0.5243 0.0000
vt 0.5316 0.5221 0.0000
vt 0.5400 0.5243 0.0000
vt 0.0200 0.2234 0.0000
vt 0.4546 0.2151 0.0000
vt 0.4546 0.2234 0.0000
vt 0.0200 0.2151 0.0000
vt 0.4546 0.2479 0.0000
vt 0.0200 0.4274 0.0000
vt 0.0200 0.2479 0.0000
vt 0.4546 0.2562 0.0000
vt 0.4546 0.4196 0.0000
vt 0.4546 0.4274 0.0000
vt 0.4546 0.1005 0.0000
vt 0.0200 0.1027 0.0000
vt 0.0200 0.1005 0.0000
vt 0.4546 0.1027 0.0000
vt 0.6190 0.5586 0.0000
vt 0.6267 0.5608 0.0000
vt 0.6190 0.5608 0.0000
vt 0.6267 0.5586 0.0000
vt 0.9800 0.5221 0.0000
vt 0.5454 0.5243 0.0000
vt 0.5454 0.5221 0.0000
vt 0.9800 0.5243 0.0000
vt 0.9416 0.5011 0.0000
vt 0.9494 0.5033 0.0000
vt 0.9416 0.5033 0.0000
vt 0.9494 0.5011 0.0000
vt 0.9800 0.5608 0.0000
vt 0.9722 0.5375 0.0000
vt 0.9800 0.5375 0.0000
vt 0.9644 0.5608 0.0000
vt 0.9644 0.5375 0.0000
vt 0.9494 0.5088 0.0000
vt 0.9260 0.5088 0.0000
vt 0.9356 0.4848 0.0000
vt 0.9512 0.4926 0.0000
vt 0.9356 0.4893 0.0000
vt 0.9512 0.4848 0.0000
vt 0.9800 0.4848 0.0000
vt 0.9567 0.4926 0.0000
vt 0.9567 0.4848 0.0000
vt 0.9800 0.4926 0.0000
vt 0.9800 0.4871 0.0000
vt 0.0850 0.1528 0.0000
vt 0.0772 0.1584 0.0000
vt 0.0772 0.1528 0.0000
vt 0.0850 0.1584 0.0000
vt 0.0928 0.1528 0.0000
vt 0.0850 0.1506 0.0000
vt 0.0928 0.1506 0.0000
vt 0.9260 0.5110 0.0000
vt 0.4546 0.1584 0.0000
vt 0.2912 0.1416 0.0000
vt 0.4546 0.1416 0.0000
vt 0.2912 0.1584 0.0000
vt 0.8011 0.5375 0.0000
vt 0.8011 0.5608 0.0000
vt 0.7956 0.5608 0.0000
vt 0.6322 0.5564 0.0000
vt 0.7956 0.5564 0.0000
vt 0.6322 0.5608 0.0000
vt 0.9800 0.5166 0.0000
vt 0.0589 0.1551 0.0000
vt 0.0421 0.1528 0.0000
vt 0.0589 0.1528 0.0000
vt 0.0421 0.1584 0.0000
vt 0.0589 0.1584 0.0000
vt 0.9428 0.5166 0.0000
vt 0.9494 0.5166 0.0000
vt 0.9356 0.4926 0.0000
vt 0.4068 0.0367 0.0000
vt 0.4002 0.0211 0.0000
vt 0.4068 0.0211 0.0000
vt 0.3834 0.0211 0.0000
vt 0.3834 0.0289 0.0000
vt 0.3834 0.0367 0.0000
vt 0.0928 0.1584 0.0000
vt 0.0200 0.1906 0.0000
vt 0.4546 0.1829 0.0000
vt 0.4546 0.1906 0.0000
vt 0.0200 0.1829 0.0000
vt 0.0922 0.6796 0.0000
vt 0.4546 0.6702 0.0000
vt 0.4779 0.6702 0.0000
vt 0.0200 0.6702 0.0000
vt 0.0200 0.8560 0.0000
vt 0.0922 0.7185 0.0000
vt 0.4546 0.7185 0.0000
vt 0.4779 0.8560 0.0000
vt 0.4546 0.6796 0.0000
vt 0.7251 0.3823 0.0000
vt 0.6825 0.0200 0.0000
vt 0.7251 0.0200 0.0000
vt 0.6825 0.3823 0.0000
vt 0.8712 0.3149 0.0000
vt 0.9101 0.2723 0.0000
vt 0.9101 0.3149 0.0000
vt 0.8712 0.2723 0.0000
vt 0.6638 0.3823 0.0000
vt 0.6212 0.0200 0.0000
vt 0.6638 0.0200 0.0000
vt 0.6212 0.3823 0.0000
vt 0.9101 0.3823 0.0000
vt 0.8712 0.3397 0.0000
vt 0.9101 0.3397 0.0000
vt 0.8712 0.3823 0.0000
vt 0.7437 0.0200 0.0000
vt 0.7826 0.3823 0.0000
vt 0.7437 0.3823 0.0000
vt 0.7826 0.0200 0.0000
vt 0.2562 0.1584 0.0000
# 203 texture coords

g Model01
f 1/1/1 2/2/1 3/3/1 
f 2/2/1 1/1/1 4/4/1 
f 4/4/1 1/1/1 5/5/1 
f 6/6/2 4/7/2 1/8/2 
f 4/7/2 6/6/2 7/9/2 
f 7/10/3 8/11/3 6/12/3 
f 5/13/4 7/14/4 8/15/4 
f 7/14/4 5/13/4 4/16/4 
f 9/17/1 4/4/1 5/5/1 
f 10/18/1 4/4/1 9/17/1 
f 4/4/1 10/18/1 2/2/1 
f 10/18/1 3/3/1 2/2/1 
f 11/19/2 3/20/2 10/21/2 
f 12/22/2 3/20/2 11/19/2 
f 3/20/2 12/22/2 13/23/2 
f 12/24/3 14/25/3 13/26/3 
f 14/25/3 12/24/3 15/27/3 
f 15/28/1 12/29/1 16/30/1 
f 12/31/4 17/32/4 16/33/4 
f 17/32/4 12/31/4 11/34/4 
f 9/35/4 17/32/4 11/34/4 
f 9/35/4 18/36/4 17/32/4 
f 18/36/4 9/35/4 19/37/4 
f 5/5/1 19/38/1 9/17/1 
f 5/5/1 20/39/1 19/38/1 
f 20/39/1 5/5/1 1/1/1 
f 1/40/5 14/41/5 20/42/5 
f 14/41/5 1/40/5 13/43/5 
f 13/43/5 1/40/5 3/44/5 
f 14/45/6 18/46/6 20/47/6 
f 18/46/6 14/45/6 15/48/6 
f 14/49/1 21/50/1 15/51/1 
f 22/52/2 14/53/2 21/54/2 
f 23/55/2 14/53/2 22/52/2 
f 23/55/2 24/56/2 14/53/2 
f 24/56/2 23/55/2 25/57/2 
f 25/57/2 26/58/2 24/56/2 
f 26/58/2 25/57/2 21/54/2 
f 21/54/2 25/57/2 27/59/2 
f 21/54/2 27/59/2 22/52/2 
f 22/60/3 28/61/3 27/62/3 
f 28/61/3 22/60/3 29/63/3 
f 22/64/4 30/65/4 29/66/4 
f 30/65/4 22/64/4 23/67/4 
f 25/68/1 30/69/1 23/70/1 
f 30/69/1 25/68/1 31/71/1 
f 27/72/5 31/73/5 25/74/5 
f 31/73/5 27/72/5 28/75/5 
f 30/76/2 28/77/2 31/78/2 
f 28/77/2 30/76/2 29/79/2 
f 21/50/1 16/80/1 15/51/1 
f 16/80/1 21/50/1 32/81/1 
f 21/82/5 33/83/5 32/84/5 
f 33/83/5 21/82/5 34/85/5 
f 18/86/3 33/87/3 34/88/3 
f 33/87/3 18/86/3 17/89/3 
f 15/90/4 17/91/4 18/92/4 
f 17/91/4 15/90/4 16/93/4 
f 33/94/2 16/95/2 17/96/2 
f 16/95/2 33/94/2 32/97/2 
f 18/98/2 35/99/2 34/100/2 
f 35/99/2 18/98/2 19/101/2 
f 35/99/2 19/101/2 36/102/2 
f 35/99/2 36/102/2 37/103/2 
f 35/104/1 38/105/1 37/106/1 
f 38/105/1 35/104/1 39/107/1 
f 35/108/5 40/109/5 39/110/5 
f 40/109/5 35/108/5 41/111/5 
f 42/112/3 40/113/3 41/114/3 
f 40/113/3 42/112/3 43/115/3 
f 42/116/4 38/117/4 43/118/4 
f 38/117/4 42/116/4 37/119/4 
f 44/120/6 37/121/6 42/122/6 
f 45/123/6 37/121/6 44/120/6 
f 37/121/6 45/123/6 36/124/6 
f 45/125/3 8/11/3 36/126/3 
f 8/11/3 45/125/3 6/12/3 
f 45/127/5 46/128/5 6/129/5 
f 46/128/5 45/127/5 44/130/5 
f 42/131/1 46/132/1 44/133/1 
f 46/132/1 42/131/1 47/134/1 
f 47/134/1 42/131/1 43/135/1 
f 38/136/4 47/137/4 43/138/4 
f 47/137/4 38/136/4 48/139/4 
f 38/136/4 49/140/4 48/139/4 
f 37/141/4 49/140/4 38/136/4 
f 49/140/4 37/141/4 36/142/4 
f 36/126/3 8/11/3 49/143/3 
f 49/144/2 5/145/2 8/146/2 
f 5/145/2 49/144/2 9/147/2 
f 49/140/4 19/37/4 9/35/4 
f 19/37/4 49/140/4 36/142/4 
f 45/123/6 19/148/6 36/124/6 
f 19/148/6 45/123/6 20/149/6 
f 6/150/5 20/151/5 45/152/5 
f 20/151/5 6/150/5 1/153/5 
f 20/47/6 18/46/6 19/154/6 
f 7/155/3 49/156/3 8/157/3 
f 49/156/3 7/155/3 50/158/3 
f 50/158/3 7/155/3 51/159/3 
f 6/12/3 51/160/3 7/10/3 
f 51/160/3 6/12/3 52/161/3 
f 6/129/5 46/128/5 52/162/5 
f 46/163/2 51/164/2 52/165/2 
f 51/164/2 46/163/2 50/166/2 
f 50/166/2 46/163/2 48/167/2 
f 48/167/2 46/163/2 47/168/2 
f 48/139/4 49/140/4 50/169/4 
f 40/170/2 38/171/2 43/172/2 
f 38/171/2 40/170/2 39/173/2 
f 53/174/2 42/175/2 44/176/2 
f 53/174/2 41/177/2 42/175/2 
f 41/177/2 53/174/2 54/178/2 
f 54/178/2 53/174/2 55/179/2 
f 54/178/2 55/179/2 56/180/2 
f 56/180/2 57/181/2 54/178/2 
f 58/182/2 57/181/2 56/180/2 
f 58/182/2 44/176/2 57/181/2 
f 44/176/2 58/182/2 53/174/2 
f 53/183/1 59/184/1 58/185/1 
f 59/184/1 53/183/1 60/186/1 
f 55/187/5 60/188/5 53/189/5 
f 60/188/5 55/187/5 61/190/5 
f 56/191/3 61/192/3 55/193/3 
f 61/192/3 56/191/3 62/194/3 
f 56/195/4 59/196/4 62/197/4 
f 59/196/4 56/195/4 58/198/4 
f 61/199/2 59/200/2 62/201/2 
f 59/200/2 61/199/2 60/202/2 
f 9/35/4 11/34/4 10/203/4 
# 130 faces

