# 3ds Max Wavefront OBJ Exporter v0.94b - (c)2007 guruware
# File Created: 01.09.2012 23:24:51

#
# object Kat2
#

v  98.1519 121.7893 259.9043
v  98.1519 141.5701 278.5702
v  98.1519 93.9323 278.5702
v  98.1519 141.5701 -0.0000
v  135.9472 141.5701 278.5702
v  135.9472 141.5701 177.1654
v  135.9472 117.0977 271.8191
v  135.9472 93.9323 271.8191
v  135.9472 93.9323 278.5702
v  122.2908 93.9323 278.5702
v  122.2908 117.0977 278.5702
v  111.9789 117.0977 278.5702
v  111.9789 93.9323 278.5702
v  111.9789 93.9323 278.1765
v  135.9472 93.9323 177.1654
v  180.8291 93.9323 -0.0000
v  98.1519 93.9323 -0.0000
v  98.1519 105.9625 259.9043
v  96.1834 105.9625 259.9043
v  96.1834 121.7893 259.9043
v  96.1834 121.7893 247.6996
v  98.1519 121.7893 247.6996
v  98.1519 121.7893 231.9515
v  98.1519 121.7893 219.7468
v  98.1519 121.7893 202.8177
v  98.1519 121.7893 190.6129
v  98.1519 121.7893 174.4712
v  98.1519 121.7893 162.2665
v  98.1519 122.3365 145.2882
v  98.1519 122.3365 133.0834
v  98.1519 122.2029 117.2011
v  98.1519 122.2029 104.9964
v  98.1519 121.7893 87.4633
v  98.1519 121.7893 75.2586
v  98.1519 122.2213 56.0067
v  98.1519 122.2213 43.8020
v  98.1519 121.7893 27.2271
v  98.1519 121.7893 15.0224
v  98.1519 105.9625 15.0224
v  98.1519 105.9625 27.2271
v  98.1519 106.3945 43.8020
v  98.1519 106.3945 56.0067
v  98.1519 105.9625 75.2586
v  98.1519 105.9625 87.4633
v  98.1519 106.3761 104.9964
v  98.1519 106.3761 117.2011
v  98.1519 106.5097 133.0834
v  98.1519 106.5097 145.2882
v  98.1519 105.9625 162.2665
v  98.1519 105.9625 174.4712
v  98.1519 105.9625 190.6129
v  98.1519 105.9625 202.8177
v  98.1519 105.9625 219.7468
v  98.1519 105.9625 231.9515
v  98.1519 105.9625 247.6996
v  96.1834 105.9625 247.6996
v  96.1834 105.9625 231.9515
v  96.1834 121.7893 231.9515
v  96.1834 121.7893 219.7468
v  96.1834 105.9625 219.7468
v  96.1834 105.9625 202.8177
v  96.1834 121.7893 202.8177
v  96.1834 121.7893 190.6129
v  96.1834 105.9625 190.6129
v  96.1834 105.9625 174.4712
v  96.1834 121.7893 174.4712
v  96.1834 121.7893 162.2665
v  96.1834 105.9625 162.2665
v  96.1834 106.5097 145.2882
v  96.1834 122.3365 145.2882
v  96.1834 122.3365 133.0834
v  96.1834 106.5097 133.0834
v  96.1834 106.3761 117.2011
v  96.1834 122.2029 117.2011
v  96.1834 122.2029 104.9964
v  96.1834 106.3761 104.9964
v  96.1834 105.9625 87.4633
v  96.1834 121.7893 87.4633
v  96.1834 121.7893 75.2586
v  96.1834 105.9625 75.2586
v  96.1834 106.3945 56.0067
v  96.1834 122.2213 56.0067
v  96.1834 122.2213 43.8020
v  96.1834 106.3945 43.8020
v  96.1834 105.9625 27.2271
v  96.1834 121.7893 27.2271
v  96.1834 121.7893 15.0224
v  96.1834 105.9625 15.0224
v  180.8291 141.5701 -0.0000
v  180.8291 141.5701 177.1654
v  180.8291 93.9323 177.1654
v  180.8291 93.9323 76.8347
v  180.8291 141.5701 76.8347
v  180.8291 141.5701 109.9055
v  180.8291 93.9323 109.9055
v  180.8291 93.9323 146.3486
v  180.8291 141.5701 146.8504
v  180.8291 141.5701 146.3486
v  135.9472 117.0977 183.0033
v  135.9472 117.0977 193.3153
v  135.9472 117.0977 203.6272
v  135.9472 117.0977 217.0276
v  135.9472 117.0977 227.3396
v  135.9472 117.0977 229.8551
v  135.9472 117.0977 240.1670
v  135.9472 117.0977 261.5071
v  135.5535 117.0977 271.8191
v  135.5535 117.0977 261.5071
v  135.5535 93.9323 261.5071
v  135.5535 93.9323 271.8191
v  135.5535 93.9323 240.1670
v  135.5535 93.9323 229.8551
v  135.5535 93.9323 183.0033
v  122.2908 93.9323 278.1765
v  122.2908 117.0977 278.1765
v  111.9789 117.0977 278.1765
v  135.9472 93.9323 183.0033
v  135.5535 117.0977 183.0033
v  135.5535 117.0977 193.3153
v  135.5535 117.0977 203.6272
v  135.9472 93.9323 203.6272
v  135.5535 93.9323 203.6272
v  135.9472 93.9323 217.0276
v  135.5535 93.9323 217.0276
v  135.5535 93.9323 227.3396
v  135.9472 93.9323 229.8551
v  135.9472 93.9323 227.3396
v  135.5535 117.0977 227.3396
v  135.5535 117.0977 217.0276
v  135.5535 117.0977 229.8551
v  135.5535 117.0977 240.1670
v  135.9472 93.9323 240.1670
v  135.9472 93.9323 261.5071
v  135.5535 93.9323 193.3153
# 134 vertices

vn 1.0000 0.0000 -0.0000
vn 0.0000 -1.0000 -0.0000
vn -1.0000 0.0000 -0.0000
vn 0.0000 0.0000 -1.0000
vn 0.0000 1.0000 -0.0000
vn 0.0000 0.0000 1.0000
# 6 vertex normals

vt 0.0511 0.4379 0.0000
vt 0.0200 0.4708 0.0000
vt 0.0200 0.3915 0.0000
vt 0.4838 0.4708 0.0000
vt 0.4838 0.6657 0.0000
vt 0.0200 0.7287 0.0000
vt 0.0200 0.6657 0.0000
vt 0.1888 0.7287 0.0000
vt 0.4726 0.2348 0.0000
vt 0.4838 0.2755 0.0000
vt 0.3150 0.2755 0.0000
vt 0.4726 0.1962 0.0000
vt 0.4838 0.1962 0.0000
vt 0.2966 0.2353 0.0000
vt 0.2173 0.2126 0.0000
vt 0.2966 0.2126 0.0000
vt 0.2581 0.2353 0.0000
vt 0.2581 0.2525 0.0000
vt 0.2173 0.2755 0.0000
vt 0.2966 0.2755 0.0000
vt 0.2966 0.2525 0.0000
vt 0.4838 0.8423 0.0000
vt 0.4838 0.8654 0.0000
vt 0.4832 0.8654 0.0000
vt 0.3150 0.9053 0.0000
vt 0.0200 0.9800 0.0000
vt 0.0200 0.8423 0.0000
vt 0.0511 0.4115 0.0000
vt 0.4838 0.3915 0.0000
vt 0.4838 0.0787 0.0000
vt 0.4575 0.0754 0.0000
vt 0.4838 0.0754 0.0000
vt 0.4575 0.0787 0.0000
vt 0.3801 0.0360 0.0000
vt 0.3597 0.0393 0.0000
vt 0.3597 0.0360 0.0000
vt 0.3801 0.0393 0.0000
vt 0.0714 0.4379 0.0000
vt 0.0976 0.4379 0.0000
vt 0.1179 0.4379 0.0000
vt 0.1461 0.4379 0.0000
vt 0.1664 0.4379 0.0000
vt 0.1933 0.4379 0.0000
vt 0.2136 0.4379 0.0000
vt 0.2419 0.4388 0.0000
vt 0.2622 0.4388 0.0000
vt 0.2887 0.4386 0.0000
vt 0.3090 0.4386 0.0000
vt 0.3382 0.4379 0.0000
vt 0.3585 0.4379 0.0000
vt 0.3906 0.4386 0.0000
vt 0.4109 0.4386 0.0000
vt 0.4385 0.4379 0.0000
vt 0.4588 0.4379 0.0000
vt 0.4588 0.4115 0.0000
vt 0.4385 0.4115 0.0000
vt 0.4109 0.4123 0.0000
vt 0.3906 0.4123 0.0000
vt 0.3585 0.4115 0.0000
vt 0.3382 0.4115 0.0000
vt 0.3090 0.4122 0.0000
vt 0.2887 0.4122 0.0000
vt 0.2622 0.4125 0.0000
vt 0.2419 0.4125 0.0000
vt 0.2136 0.4115 0.0000
vt 0.1933 0.4115 0.0000
vt 0.1664 0.4115 0.0000
vt 0.1461 0.4115 0.0000
vt 0.1179 0.4115 0.0000
vt 0.0976 0.4115 0.0000
vt 0.0714 0.4115 0.0000
vt 0.0322 0.2478 0.0000
vt 0.0526 0.2445 0.0000
vt 0.0526 0.2478 0.0000
vt 0.0322 0.2445 0.0000
vt 0.2013 0.5581 0.0000
vt 0.2216 0.5845 0.0000
vt 0.2013 0.5845 0.0000
vt 0.2216 0.5581 0.0000
vt 0.3801 0.1224 0.0000
vt 0.3537 0.1192 0.0000
vt 0.3801 0.1192 0.0000
vt 0.3537 0.1224 0.0000
vt 0.1929 0.2755 0.0000
vt 0.1665 0.2723 0.0000
vt 0.1929 0.2723 0.0000
vt 0.1665 0.2755 0.0000
vt 0.2785 0.1192 0.0000
vt 0.2581 0.1224 0.0000
vt 0.2581 0.1192 0.0000
vt 0.2785 0.1224 0.0000
vt 0.2703 0.2416 0.0000
vt 0.2966 0.2449 0.0000
vt 0.2703 0.2449 0.0000
vt 0.2966 0.2416 0.0000
vt 0.0973 0.2168 0.0000
vt 0.0770 0.2201 0.0000
vt 0.0770 0.2168 0.0000
vt 0.0973 0.2201 0.0000
vt 0.1495 0.5262 0.0000
vt 0.1698 0.5526 0.0000
vt 0.1495 0.5526 0.0000
vt 0.1698 0.5262 0.0000
vt 0.3293 0.1779 0.0000
vt 0.3029 0.1746 0.0000
vt 0.3293 0.1746 0.0000
vt 0.3029 0.1779 0.0000
vt 0.3801 0.0914 0.0000
vt 0.3597 0.0947 0.0000
vt 0.3597 0.0914 0.0000
vt 0.3801 0.0947 0.0000
vt 0.4575 0.0477 0.0000
vt 0.4838 0.0510 0.0000
vt 0.4575 0.0510 0.0000
vt 0.4838 0.0477 0.0000
vt 0.4330 0.0200 0.0000
vt 0.4127 0.0233 0.0000
vt 0.4127 0.0200 0.0000
vt 0.4330 0.0233 0.0000
vt 0.1495 0.5900 0.0000
vt 0.1698 0.6164 0.0000
vt 0.1495 0.6164 0.0000
vt 0.1698 0.5900 0.0000
vt 0.4330 0.0510 0.0000
vt 0.4067 0.0477 0.0000
vt 0.4330 0.0477 0.0000
vt 0.4067 0.0510 0.0000
vt 0.1829 0.1746 0.0000
vt 0.1626 0.1779 0.0000
vt 0.1626 0.1746 0.0000
vt 0.1829 0.1779 0.0000
vt 0.1665 0.2445 0.0000
vt 0.1929 0.2478 0.0000
vt 0.1665 0.2478 0.0000
vt 0.1929 0.2445 0.0000
vt 0.2337 0.1469 0.0000
vt 0.2134 0.1502 0.0000
vt 0.2134 0.1469 0.0000
vt 0.2337 0.1502 0.0000
vt 0.1754 0.5262 0.0000
vt 0.1957 0.5526 0.0000
vt 0.1754 0.5526 0.0000
vt 0.1957 0.5262 0.0000
vt 0.3801 0.1779 0.0000
vt 0.3537 0.1746 0.0000
vt 0.3801 0.1746 0.0000
vt 0.3537 0.1779 0.0000
vt 0.0913 0.2723 0.0000
vt 0.0710 0.2755 0.0000
vt 0.0710 0.2723 0.0000
vt 0.0913 0.2755 0.0000
vt 0.3029 0.1469 0.0000
vt 0.3293 0.1502 0.0000
vt 0.3029 0.1502 0.0000
vt 0.3293 0.1469 0.0000
vt 0.1421 0.2445 0.0000
vt 0.1218 0.2478 0.0000
vt 0.1218 0.2445 0.0000
vt 0.1421 0.2478 0.0000
vt 0.1754 0.5900 0.0000
vt 0.1957 0.6164 0.0000
vt 0.1754 0.6164 0.0000
vt 0.1957 0.5900 0.0000
vt 0.1421 0.2755 0.0000
vt 0.1157 0.2723 0.0000
vt 0.1421 0.2723 0.0000
vt 0.1157 0.2755 0.0000
vt 0.0973 0.2445 0.0000
vt 0.0770 0.2478 0.0000
vt 0.0770 0.2445 0.0000
vt 0.0973 0.2478 0.0000
vt 0.4575 0.0200 0.0000
vt 0.4838 0.0233 0.0000
vt 0.4575 0.0233 0.0000
vt 0.4838 0.0200 0.0000
vt 0.3293 0.0914 0.0000
vt 0.3089 0.0947 0.0000
vt 0.3089 0.0914 0.0000
vt 0.3293 0.0947 0.0000
vt 0.2013 0.5900 0.0000
vt 0.2216 0.6164 0.0000
vt 0.2013 0.6164 0.0000
vt 0.2216 0.5900 0.0000
vt 0.4330 0.0787 0.0000
vt 0.4067 0.0754 0.0000
vt 0.4330 0.0754 0.0000
vt 0.4067 0.0787 0.0000
vt 0.0465 0.2723 0.0000
vt 0.0262 0.2755 0.0000
vt 0.0262 0.2723 0.0000
vt 0.0465 0.2755 0.0000
vt 0.3537 0.1469 0.0000
vt 0.3801 0.1502 0.0000
vt 0.3537 0.1502 0.0000
vt 0.3801 0.1469 0.0000
vt 0.3801 0.0637 0.0000
vt 0.3597 0.0670 0.0000
vt 0.3597 0.0637 0.0000
vt 0.3801 0.0670 0.0000
vt 0.1754 0.5581 0.0000
vt 0.1957 0.5845 0.0000
vt 0.1754 0.5845 0.0000
vt 0.1957 0.5581 0.0000
vt 0.2785 0.1779 0.0000
vt 0.2521 0.1746 0.0000
vt 0.2785 0.1746 0.0000
vt 0.2521 0.1779 0.0000
vt 0.2277 0.1746 0.0000
vt 0.2074 0.1779 0.0000
vt 0.2074 0.1746 0.0000
vt 0.2277 0.1779 0.0000
vt 0.1665 0.2168 0.0000
vt 0.1929 0.2201 0.0000
vt 0.1665 0.2201 0.0000
vt 0.1929 0.2168 0.0000
vt 0.1421 0.2168 0.0000
vt 0.1218 0.2201 0.0000
vt 0.1218 0.2168 0.0000
vt 0.1421 0.2201 0.0000
vt 0.2013 0.5262 0.0000
vt 0.2216 0.5526 0.0000
vt 0.2013 0.5526 0.0000
vt 0.2216 0.5262 0.0000
vt 0.3357 0.1962 0.0000
vt 0.3325 0.2226 0.0000
vt 0.3325 0.1962 0.0000
vt 0.3357 0.2226 0.0000
vt 0.2785 0.1469 0.0000
vt 0.2581 0.1502 0.0000
vt 0.2581 0.1469 0.0000
vt 0.2785 0.1502 0.0000
vt 0.3419 0.2226 0.0000
vt 0.3451 0.1962 0.0000
vt 0.3451 0.2226 0.0000
vt 0.3419 0.1962 0.0000
vt 0.3293 0.1192 0.0000
vt 0.3089 0.1224 0.0000
vt 0.3089 0.1192 0.0000
vt 0.3293 0.1224 0.0000
vt 0.1495 0.5581 0.0000
vt 0.1698 0.5845 0.0000
vt 0.1495 0.5845 0.0000
vt 0.1698 0.5581 0.0000
vt 0.2825 0.2939 0.0000
vt 0.1448 0.3732 0.0000
vt 0.1448 0.2939 0.0000
vt 0.2825 0.3732 0.0000
vt 0.4838 0.8034 0.0000
vt 0.1888 0.8034 0.0000
vt 0.4045 0.1032 0.0000
vt 0.4838 0.1779 0.0000
vt 0.4045 0.1779 0.0000
vt 0.4838 0.1032 0.0000
vt 0.3150 0.9800 0.0000
vt 0.4838 0.6303 0.0000
vt 0.1888 0.6303 0.0000
vt 0.3559 0.6303 0.0000
vt 0.4288 0.2939 0.0000
vt 0.4288 0.3732 0.0000
vt 0.3008 0.2939 0.0000
vt 0.4838 0.3732 0.0000
vt 0.4838 0.2939 0.0000
vt 0.3008 0.6303 0.0000
vt 0.2401 0.6303 0.0000
vt 0.0472 0.3732 0.0000
vt 0.1265 0.3219 0.0000
vt 0.1265 0.3732 0.0000
vt 0.0472 0.3227 0.0000
vt 0.0472 0.3219 0.0000
vt 0.2393 0.6455 0.0000
vt 0.4838 0.6455 0.0000
vt 0.2401 0.6455 0.0000
vt 0.1888 0.6455 0.0000
vt 0.3008 0.6455 0.0000
vt 0.3559 0.6455 0.0000
vt 0.3008 0.3732 0.0000
vt 0.3247 0.2348 0.0000
vt 0.3150 0.1962 0.0000
vt 0.3419 0.2348 0.0000
vt 0.3590 0.2348 0.0000
vt 0.3813 0.2348 0.0000
vt 0.3985 0.2348 0.0000
vt 0.4027 0.2348 0.0000
vt 0.4199 0.2348 0.0000
vt 0.4554 0.2348 0.0000
vt 0.3490 0.5732 0.0000
vt 0.3661 0.5726 0.0000
vt 0.3661 0.5732 0.0000
vt 0.3490 0.5726 0.0000
vt 0.0930 0.5732 0.0000
vt 0.0758 0.5346 0.0000
vt 0.0930 0.5346 0.0000
vt 0.0758 0.5732 0.0000
vt 0.1774 0.7830 0.0000
vt 0.1780 0.7444 0.0000
vt 0.1780 0.7830 0.0000
vt 0.1774 0.7444 0.0000
vt 0.4726 0.9046 0.0000
vt 0.4838 0.9053 0.0000
vt 0.4726 0.9053 0.0000
vt 0.4838 0.8825 0.0000
vt 0.4199 0.9046 0.0000
vt 0.4027 0.9046 0.0000
vt 0.3247 0.9046 0.0000
vt 0.4832 0.8825 0.0000
vt 0.0976 0.5732 0.0000
vt 0.1148 0.5346 0.0000
vt 0.1148 0.5732 0.0000
vt 0.0976 0.5346 0.0000
vt 0.4078 0.5516 0.0000
vt 0.4250 0.5523 0.0000
vt 0.4078 0.5523 0.0000
vt 0.4250 0.5516 0.0000
vt 0.4838 0.5516 0.0000
vt 0.4452 0.5523 0.0000
vt 0.4452 0.5516 0.0000
vt 0.4838 0.5523 0.0000
vt 0.4250 0.5726 0.0000
vt 0.3864 0.5732 0.0000
vt 0.3864 0.5726 0.0000
vt 0.4250 0.5732 0.0000
vt 0.3247 0.9053 0.0000
vt 0.4250 0.5941 0.0000
vt 0.3864 0.5935 0.0000
vt 0.4250 0.5935 0.0000
vt 0.3864 0.5941 0.0000
vt 0.2901 0.6144 0.0000
vt 0.2730 0.6151 0.0000
vt 0.2730 0.6144 0.0000
vt 0.2901 0.6151 0.0000
vt 0.3073 0.6144 0.0000
vt 0.3073 0.6151 0.0000
vt 0.4452 0.5935 0.0000
vt 0.4838 0.5941 0.0000
vt 0.4452 0.5941 0.0000
vt 0.4838 0.5935 0.0000
vt 0.4615 0.5307 0.0000
vt 0.4838 0.5314 0.0000
vt 0.4615 0.5314 0.0000
vt 0.4838 0.5307 0.0000
vt 0.1624 0.7343 0.0000
vt 0.1401 0.7343 0.0000
vt 0.1057 0.7343 0.0000
vt 0.1837 0.7343 0.0000
vt 0.1795 0.7343 0.0000
vt 0.4796 0.5098 0.0000
vt 0.4838 0.5098 0.0000
vt 0.4838 0.5104 0.0000
vt 0.4796 0.5104 0.0000
vt 0.4838 0.5732 0.0000
vt 0.4452 0.5726 0.0000
vt 0.4838 0.5726 0.0000
vt 0.4452 0.5732 0.0000
vt 0.2932 0.5941 0.0000
vt 0.3103 0.5935 0.0000
vt 0.3103 0.5941 0.0000
vt 0.2932 0.5935 0.0000
vt 0.1148 0.6164 0.0000
vt 0.0976 0.5778 0.0000
vt 0.1148 0.5778 0.0000
vt 0.0976 0.6164 0.0000
vt 0.4452 0.6144 0.0000
vt 0.4838 0.6151 0.0000
vt 0.4452 0.6151 0.0000
vt 0.4838 0.6144 0.0000
vt 0.3590 0.1962 0.0000
vt 0.3813 0.1962 0.0000
vt 0.3985 0.1962 0.0000
vt 0.4027 0.1962 0.0000
vt 0.3661 0.6151 0.0000
vt 0.3276 0.6144 0.0000
vt 0.3661 0.6144 0.0000
vt 0.3276 0.6151 0.0000
vt 0.2527 0.6144 0.0000
vt 0.2355 0.6151 0.0000
vt 0.2355 0.6144 0.0000
vt 0.2527 0.6151 0.0000
vt 0.1837 0.7444 0.0000
vt 0.1831 0.7830 0.0000
vt 0.1831 0.7444 0.0000
vt 0.1837 0.7830 0.0000
vt 0.3661 0.5935 0.0000
vt 0.3306 0.5941 0.0000
vt 0.3306 0.5935 0.0000
vt 0.3661 0.5941 0.0000
vt 0.4199 0.1962 0.0000
vt 0.4554 0.1962 0.0000
vt 0.4250 0.6151 0.0000
vt 0.3864 0.6144 0.0000
vt 0.4250 0.6144 0.0000
vt 0.3864 0.6151 0.0000
vt 0.1310 0.7393 0.0000
vt 0.1837 0.7393 0.0000
vt 0.1666 0.7393 0.0000
vt 0.1194 0.5778 0.0000
vt 0.1365 0.6164 0.0000
vt 0.1194 0.6164 0.0000
vt 0.1365 0.5778 0.0000
vt 0.1229 0.7343 0.0000
vt 0.0995 0.7648 0.0000
vt 0.1167 0.8034 0.0000
vt 0.0995 0.8034 0.0000
vt 0.1167 0.7648 0.0000
vt 0.0930 0.6164 0.0000
vt 0.0758 0.5778 0.0000
vt 0.0930 0.5778 0.0000
vt 0.0758 0.6164 0.0000
vt 0.3247 0.1962 0.0000
# 408 texture coords

g Kat2
f 1/1/1 2/2/1 3/3/1 
f 2/2/1 1/1/1 4/4/1 
f 4/5/2 5/6/2 2/7/2 
f 5/6/2 4/5/2 6/8/2 
f 7/9/3 5/10/3 6/11/3 
f 8/12/3 5/10/3 7/9/3 
f 5/10/3 8/12/3 9/13/3 
f 10/14/4 5/15/4 9/16/4 
f 5/15/4 10/14/4 11/17/4 
f 5/15/4 11/17/4 12/18/4 
f 12/18/4 2/19/4 5/15/4 
f 12/18/4 3/20/4 2/19/4 
f 3/20/4 12/18/4 13/21/4 
f 3/22/5 13/23/5 14/24/5 
f 15/25/5 3/22/5 14/24/5 
f 16/26/5 3/22/5 15/25/5 
f 3/22/5 16/26/5 17/27/5 
f 18/28/1 3/3/1 17/29/1 
f 3/3/1 18/28/1 1/1/1 
f 19/30/4 1/31/4 18/32/4 
f 1/31/4 19/30/4 20/33/4 
f 21/34/2 1/35/2 20/36/2 
f 1/35/2 21/34/2 22/37/2 
f 4/4/1 1/1/1 22/38/1 
f 4/4/1 22/38/1 23/39/1 
f 4/4/1 23/39/1 24/40/1 
f 4/4/1 24/40/1 25/41/1 
f 4/4/1 25/41/1 26/42/1 
f 4/4/1 26/42/1 27/43/1 
f 4/4/1 27/43/1 28/44/1 
f 4/4/1 28/44/1 29/45/1 
f 4/4/1 29/45/1 30/46/1 
f 4/4/1 30/46/1 31/47/1 
f 4/4/1 31/47/1 32/48/1 
f 4/4/1 32/48/1 33/49/1 
f 4/4/1 33/49/1 34/50/1 
f 4/4/1 34/50/1 35/51/1 
f 4/4/1 35/51/1 36/52/1 
f 4/4/1 36/52/1 37/53/1 
f 4/4/1 37/53/1 38/54/1 
f 4/4/1 38/54/1 39/55/1 
f 39/55/1 17/29/1 4/4/1 
f 40/56/1 17/29/1 39/55/1 
f 41/57/1 17/29/1 40/56/1 
f 42/58/1 17/29/1 41/57/1 
f 43/59/1 17/29/1 42/58/1 
f 44/60/1 17/29/1 43/59/1 
f 45/61/1 17/29/1 44/60/1 
f 46/62/1 17/29/1 45/61/1 
f 47/63/1 17/29/1 46/62/1 
f 48/64/1 17/29/1 47/63/1 
f 49/65/1 17/29/1 48/64/1 
f 50/66/1 17/29/1 49/65/1 
f 51/67/1 17/29/1 50/66/1 
f 52/68/1 17/29/1 51/67/1 
f 53/69/1 17/29/1 52/68/1 
f 54/70/1 17/29/1 53/69/1 
f 55/71/1 17/29/1 54/70/1 
f 18/28/1 17/29/1 55/71/1 
f 55/72/5 19/73/5 18/74/5 
f 19/73/5 55/72/5 56/75/5 
f 21/76/1 19/77/1 56/78/1 
f 19/77/1 21/76/1 20/79/1 
f 55/80/6 21/81/6 56/82/6 
f 21/81/6 55/80/6 22/83/6 
f 23/39/1 22/38/1 55/71/1 
f 55/71/1 54/70/1 23/39/1 
f 57/84/4 23/85/4 54/86/4 
f 23/85/4 57/84/4 58/87/4 
f 59/88/2 23/89/2 58/90/2 
f 23/89/2 59/88/2 24/91/2 
f 59/92/6 53/93/6 24/94/6 
f 53/93/6 59/92/6 60/95/6 
f 57/96/5 53/97/5 60/98/5 
f 53/97/5 57/96/5 54/99/5 
f 59/100/1 57/101/1 60/102/1 
f 57/101/1 59/100/1 58/103/1 
f 25/41/1 24/40/1 53/69/1 
f 53/69/1 52/68/1 25/41/1 
f 61/104/4 25/105/4 52/106/4 
f 25/105/4 61/104/4 62/107/4 
f 63/108/2 25/109/2 62/110/2 
f 25/109/2 63/108/2 26/111/2 
f 63/112/6 51/113/6 26/114/6 
f 51/113/6 63/112/6 64/115/6 
f 61/116/5 51/117/5 64/118/5 
f 51/117/5 61/116/5 52/119/5 
f 63/120/1 61/121/1 64/122/1 
f 61/121/1 63/120/1 62/123/1 
f 27/43/1 26/42/1 51/67/1 
f 51/67/1 50/66/1 27/43/1 
f 65/124/4 27/125/4 50/126/4 
f 27/125/4 65/124/4 66/127/4 
f 67/128/2 27/129/2 66/130/2 
f 27/129/2 67/128/2 28/131/2 
f 67/132/6 49/133/6 28/134/6 
f 49/133/6 67/132/6 68/135/6 
f 65/136/5 49/137/5 68/138/5 
f 49/137/5 65/136/5 50/139/5 
f 67/140/1 65/141/1 68/142/1 
f 65/141/1 67/140/1 66/143/1 
f 29/45/1 28/44/1 49/65/1 
f 49/65/1 48/64/1 29/45/1 
f 69/144/4 29/145/4 48/146/4 
f 29/145/4 69/144/4 70/147/4 
f 71/148/2 29/149/2 70/150/2 
f 29/149/2 71/148/2 30/151/2 
f 71/152/6 47/153/6 30/154/6 
f 47/153/6 71/152/6 72/155/6 
f 69/156/5 47/157/5 72/158/5 
f 47/157/5 69/156/5 48/159/5 
f 71/160/1 69/161/1 72/162/1 
f 69/161/1 71/160/1 70/163/1 
f 31/47/1 30/46/1 47/63/1 
f 47/63/1 46/62/1 31/47/1 
f 73/164/4 31/165/4 46/166/4 
f 31/165/4 73/164/4 74/167/4 
f 75/168/2 31/169/2 74/170/2 
f 31/169/2 75/168/2 32/171/2 
f 75/172/6 45/173/6 32/174/6 
f 45/173/6 75/172/6 76/175/6 
f 73/176/5 45/177/5 76/178/5 
f 45/177/5 73/176/5 46/179/5 
f 75/180/1 73/181/1 76/182/1 
f 73/181/1 75/180/1 74/183/1 
f 33/49/1 32/48/1 45/61/1 
f 45/61/1 44/60/1 33/49/1 
f 77/184/4 33/185/4 44/186/4 
f 33/185/4 77/184/4 78/187/4 
f 79/188/2 33/189/2 78/190/2 
f 33/189/2 79/188/2 34/191/2 
f 79/192/6 43/193/6 34/194/6 
f 43/193/6 79/192/6 80/195/6 
f 77/196/5 43/197/5 80/198/5 
f 43/197/5 77/196/5 44/199/5 
f 79/200/1 77/201/1 80/202/1 
f 77/201/1 79/200/1 78/203/1 
f 35/51/1 34/50/1 43/59/1 
f 43/59/1 42/58/1 35/51/1 
f 81/204/4 35/205/4 42/206/4 
f 35/205/4 81/204/4 82/207/4 
f 83/208/2 35/209/2 82/210/2 
f 35/209/2 83/208/2 36/211/2 
f 83/212/6 41/213/6 36/214/6 
f 41/213/6 83/212/6 84/215/6 
f 81/216/5 41/217/5 84/218/5 
f 41/217/5 81/216/5 42/219/5 
f 83/220/1 81/221/1 84/222/1 
f 81/221/1 83/220/1 82/223/1 
f 37/53/1 36/52/1 41/57/1 
f 41/57/1 40/56/1 37/53/1 
f 85/224/4 37/225/4 40/226/4 
f 37/225/4 85/224/4 86/227/4 
f 87/228/2 37/229/2 86/230/2 
f 37/229/2 87/228/2 38/231/2 
f 87/232/6 39/233/6 38/234/6 
f 39/233/6 87/232/6 88/235/6 
f 85/236/5 39/237/5 88/238/5 
f 39/237/5 85/236/5 40/239/5 
f 87/240/1 85/241/1 88/242/1 
f 85/241/1 87/240/1 86/243/1 
f 16/244/6 4/245/6 17/246/6 
f 4/245/6 16/244/6 89/247/6 
f 6/8/2 4/5/2 89/248/2 
f 6/8/2 89/248/2 90/249/2 
f 90/250/4 15/251/4 6/252/4 
f 15/251/4 90/250/4 91/253/4 
f 16/26/5 15/25/5 91/254/5 
f 16/255/1 91/256/1 92/257/1 
f 92/258/3 93/259/3 16/260/3 
f 92/258/3 94/261/3 93/259/3 
f 94/261/3 92/258/3 95/262/3 
f 92/257/1 91/256/1 95/263/1 
f 95/263/1 91/256/1 96/264/1 
f 90/265/3 96/266/3 91/267/3 
f 96/266/3 90/265/3 97/268/3 
f 96/266/3 97/268/3 98/269/3 
f 97/270/1 89/271/1 98/272/1 
f 90/273/1 89/271/1 97/270/1 
f 98/272/1 89/271/1 94/274/1 
f 94/274/1 89/271/1 93/275/1 
f 16/260/3 93/259/3 89/276/3 
f 99/277/3 6/11/3 15/278/3 
f 100/279/3 6/11/3 99/277/3 
f 101/280/3 6/11/3 100/279/3 
f 102/281/3 6/11/3 101/280/3 
f 103/282/3 6/11/3 102/281/3 
f 104/283/3 6/11/3 103/282/3 
f 105/284/3 6/11/3 104/283/3 
f 106/285/3 6/11/3 105/284/3 
f 7/9/3 6/11/3 106/285/3 
f 106/286/5 107/287/5 7/288/5 
f 107/287/5 106/286/5 108/289/5 
f 109/290/3 107/291/3 108/292/3 
f 107/291/3 109/290/3 110/293/3 
f 8/294/6 107/295/6 110/296/6 
f 107/295/6 8/294/6 7/297/6 
f 110/298/5 9/299/5 8/300/5 
f 110/298/5 10/301/5 9/299/5 
f 10/301/5 110/298/5 111/302/5 
f 10/301/5 111/302/5 112/303/5 
f 113/304/5 10/301/5 112/303/5 
f 15/25/5 10/301/5 113/304/5 
f 15/25/5 114/305/5 10/301/5 
f 15/25/5 14/24/5 114/305/5 
f 14/306/4 115/307/4 114/308/4 
f 115/307/4 14/306/4 116/309/4 
f 12/310/5 115/311/5 116/312/5 
f 115/311/5 12/310/5 11/313/5 
f 10/314/1 115/315/1 11/316/1 
f 115/315/1 10/314/1 114/317/1 
f 14/318/3 12/319/3 116/320/3 
f 12/319/3 14/318/3 13/321/3 
f 113/304/5 117/322/5 15/25/5 
f 113/323/4 99/324/4 117/325/4 
f 99/324/4 113/323/4 118/326/4 
f 119/327/5 99/328/5 118/329/5 
f 99/328/5 119/327/5 100/330/5 
f 120/331/5 100/330/5 119/327/5 
f 100/330/5 120/331/5 101/332/5 
f 120/333/6 121/334/6 101/335/6 
f 121/334/6 120/333/6 122/336/6 
f 122/337/5 123/338/5 121/339/5 
f 122/337/5 124/340/5 123/338/5 
f 124/341/1 122/342/1 113/343/1 
f 113/343/1 112/344/1 124/341/1 
f 112/344/1 125/345/1 124/341/1 
f 125/346/5 112/347/5 126/348/5 
f 125/346/5 126/348/5 127/349/5 
f 127/350/6 128/351/6 125/352/6 
f 128/351/6 127/350/6 103/353/6 
f 102/354/5 128/355/5 103/356/5 
f 128/355/5 102/354/5 129/357/5 
f 124/358/3 128/359/3 129/360/3 
f 128/359/3 124/358/3 125/361/3 
f 102/362/4 124/363/4 129/364/4 
f 124/363/4 102/362/4 123/365/4 
f 102/281/3 121/366/3 123/367/3 
f 102/281/3 101/280/3 121/366/3 
f 104/283/3 103/282/3 127/368/3 
f 104/283/3 127/368/3 126/369/3 
f 112/370/4 104/371/4 126/372/4 
f 104/371/4 112/370/4 130/373/4 
f 131/374/5 104/375/5 130/376/5 
f 104/375/5 131/374/5 105/377/5 
f 131/378/6 132/379/6 105/380/6 
f 132/379/6 131/378/6 111/381/6 
f 109/382/5 132/383/5 111/384/5 
f 132/383/5 109/382/5 133/385/5 
f 106/285/3 132/386/3 133/387/3 
f 106/285/3 105/284/3 132/386/3 
f 109/388/4 106/389/4 133/390/4 
f 106/389/4 109/388/4 108/391/4 
f 111/392/1 110/393/1 109/394/1 
f 131/395/3 112/396/3 111/397/3 
f 112/396/3 131/395/3 130/398/3 
f 113/343/1 122/342/1 134/399/1 
f 119/400/3 113/401/3 134/402/3 
f 113/401/3 119/400/3 118/403/3 
f 134/404/3 120/405/3 119/406/3 
f 120/405/3 134/404/3 122/407/3 
f 99/277/3 15/278/3 117/408/3 
# 262 faces

