# 3ds Max Wavefront OBJ Exporter v0.94b - (c)2007 guruware
# File Created: 01.09.2012 23:33:22

#
# object priz_krov
#

v  152.0557 42.9907 -126.1835
v  121.7407 42.9907 0.1925
v  121.7407 42.9907 -126.1835
v  152.0557 42.9907 0.1925
v  133.9455 42.9907 197.0429
v  179.6148 42.9907 197.0429
v  179.6148 42.9907 105.2092
v  248.1187 42.9907 0.1925
v  248.1187 42.9907 105.2092
v  179.6148 42.9907 150.8445
v  206.7801 42.9907 150.8445
v  179.6148 42.9907 202.1222
v  206.7801 42.9907 202.1222
v  133.9455 42.9907 278.7627
v  98.5124 42.9907 278.7627
v  98.5124 42.9907 0.1925
v  180.7959 93.2062 177.3579
v  180.7959 91.9360 0.1925
v  180.7959 92.5830 71.5946
v  135.9140 92.3301 177.3579
v  98.1187 92.3301 278.7627
v  98.1187 92.3301 0.1925
v  135.9140 92.3301 278.7627
v  205.9927 90.9268 0.1925
v  458.3549 92.5830 71.5946
v  248.1187 90.9268 0.1925
v  248.1187 92.5722 -133.2720
v  205.9927 92.5722 -133.2720
v  458.3549 92.5830 0.1925
v  180.7959 141.4865 110.0981
v  248.1187 141.4865 147.0429
v  180.7959 141.4865 147.0429
v  248.1187 141.4865 110.0981
v  179.6148 44.8741 197.0429
v  179.6148 44.8741 105.2092
v  179.6148 44.8741 110.0981
v  179.6148 44.8741 127.0272
v  179.6148 44.8741 147.0429
v  179.6148 44.8741 150.8445
# 39 vertices

vn 0.0000 -1.0000 -0.0000
vn 1.0000 0.0000 -0.0000
vn 0.0195 -0.9998 0.0072
vn 0.0186 -0.9998 0.0069
vn -0.0048 -1.0000 -0.0000
vn -0.0400 -0.9992 0.0091
vn 0.0000 -0.9997 0.0232
vn 0.0000 -0.9999 -0.0123
vn 0.0079 -1.0000 -0.0000
# 9 vertex normals

vt 0.9800 0.5389 0.0000
vt 0.7704 0.4886 0.0000
vt 0.9800 0.4886 0.0000
vt 0.7704 0.5389 0.0000
vt 0.4440 0.5088 0.0000
vt 0.4440 0.5846 0.0000
vt 0.5963 0.5846 0.0000
vt 0.7704 0.6982 0.0000
vt 0.5963 0.6982 0.0000
vt 0.7297 0.0599 0.0000
vt 0.8063 0.0599 0.0000
vt 0.8063 0.1050 0.0000
vt 0.7213 0.0599 0.0000
vt 0.7213 0.1050 0.0000
vt 0.3085 0.5088 0.0000
vt 0.3085 0.4501 0.0000
vt 0.7704 0.4501 0.0000
vt 0.6862 0.0221 0.0000
vt 0.9800 0.0200 0.0000
vt 0.8616 0.0211 0.0000
vt 0.1881 0.3252 0.0000
vt 0.4819 0.3996 0.0000
vt 0.1881 0.3996 0.0000
vt 0.0200 0.2626 0.0000
vt 0.4819 0.2626 0.0000
vt 0.0200 0.3252 0.0000
vt 0.5615 0.2812 0.0000
vt 0.5198 0.3996 0.0000
vt 0.5198 0.2812 0.0000
vt 0.9800 0.3996 0.0000
vt 0.6314 0.2812 0.0000
vt 0.6314 0.0599 0.0000
vt 0.5615 0.0599 0.0000
vt 0.9800 0.2812 0.0000
vt 0.7087 0.0599 0.0000
vt 0.6474 0.1716 0.0000
vt 0.6474 0.0599 0.0000
vt 0.7087 0.1716 0.0000
vt 0.5198 0.0599 0.0000
vt 0.5198 0.2122 0.0000
vt 0.5198 0.2041 0.0000
vt 0.5198 0.1760 0.0000
vt 0.5198 0.1428 0.0000
vt 0.5198 0.1365 0.0000
# 44 texture coords

g priz_krov
f 1/1/1 2/2/1 3/3/1 
f 2/2/1 1/1/1 4/4/1 
f 4/4/1 5/5/1 2/2/1 
f 5/5/1 4/4/1 6/6/1 
f 6/6/1 4/4/1 7/7/1 
f 8/8/1 7/7/1 4/4/1 
f 7/7/1 8/8/1 9/9/1 
f 6/10/1 10/11/1 11/12/1 
f 6/10/1 11/12/1 12/13/1 
f 12/13/1 11/12/1 13/14/1 
f 14/15/1 2/2/1 5/5/1 
f 15/16/1 2/2/1 14/15/1 
f 2/2/1 15/16/1 16/17/1 
f 17/18/2 18/19/2 19/20/2 
f 20/21/3 18/22/3 17/23/3 
f 21/24/4 18/22/4 20/21/4 
f 18/22/5 21/24/5 22/25/5 
f 23/26/1 21/24/1 20/21/1 
f 24/27/6 19/28/6 18/29/6 
f 19/28/7 24/27/7 25/30/7 
f 25/30/7 24/27/7 26/31/7 
f 26/31/8 24/27/8 27/32/8 
f 27/32/8 24/27/8 28/33/8 
f 25/30/9 26/31/9 29/34/9 
f 30/35/1 31/36/1 32/37/1 
f 31/36/1 30/35/1 33/38/1 
f 34/39/2 35/40/2 36/41/2 
f 34/39/2 36/41/2 37/42/2 
f 34/39/2 37/42/2 38/43/2 
f 34/39/2 38/43/2 39/44/2 
# 30 faces

